<svg id="Layer_1" enable-background="new 0 0 512 512" height="512" viewBox="0 0 512 512" width="512" xmlns="http://www.w3.org/2000/svg"><g><path d="m368.467 158.533h-64.267c-8.284 0-15-6.716-15-15 0-42.969 34.706-79.267 79.25-79.267 8.284 0 15.016 6.716 15.016 15v64.267c.001 8.284-6.715 15-14.999 15z" fill="#ff405c"/><g fill="#d01273"><path d="m68.658 298.737c-.001-.001-18.842-18.841-18.842-18.841-3.335-3.334-8.3-4.324-12.647-2.52-4.356 1.805-7.169 6.015-7.169 10.725 0 8.284-6.716 15.016-15 15.016s-15-6.7-15-14.984c0-16.917 10.081-32.005 25.682-38.471 15.598-6.465 33.398-2.926 45.344 9.018l18.85 18.85c5.857 5.859 5.854 15.356-.005 21.213-5.86 5.857-15.357 5.853-21.213-.006z"/><path d="m223.867 417.733h-64.267c-8.284 0-15 6.716-15 15v64.267c0 8.284 6.716 15 15 15h64.267c8.284 0 15-6.716 15-15v-64.267c0-8.284-6.716-15-15-15z"/><path d="m352.4 417.733h-64.267c-8.284 0-15 6.716-15 15v64.267c0 8.284 6.716 15 15 15h64.267c8.284 0 15-6.716 15-15v-64.267c0-8.284-6.716-15-15-15z"/></g><path d="m497 351.333h-64.267c-8.284 0-15-6.716-15-15v-96.4c0-8.284 6.716-15 15-15h64.267c8.284 0 15 6.716 15 15v96.4c0 8.285-6.716 15-15 15z" fill="#ff405c"/><path d="m432.733 351.333h64.267c8.284 0 15-6.716 15-15v-48.2h-94.267v48.2c0 8.285 6.716 15 15 15z" fill="#d01273"/><path d="m352.4 447.733h-192.8c-52.642 0-95.333-42.592-95.333-95.333v-128.533c0-52.656 42.6-95.333 95.333-95.333h208.867c43.774 0 79.267 35.413 79.267 79.267v144.6c-.001 52.655-42.6 95.332-95.334 95.332z" fill="#ff7d47"/><path d="m159.6 447.733h192.8c52.734 0 95.333-42.677 95.333-95.333v-64.267h-383.466v64.267c0 52.742 42.691 95.333 95.333 95.333z" fill="#ff405c"/><circle cx="223.867" cy="47.133" fill="#ffec29" r="47.133"/><path d="m272.067 222.8h-96.4c-8.284 0-15-6.716-15-15s6.716-15 15-15h96.4c8.284 0 15 6.716 15 15s-6.716 15-15 15z" fill="#d01273"/><path d="m368.467 238.867c-8.284 0-15-6.716-15-15v-16.067c0-8.284 6.716-15 15-15s15 6.716 15 15v16.067c0 8.284-6.716 15-15 15z" fill="#3c3a42"/><path d="m223.867 94.267v-94.267c25.989 0 47.133 21.144 47.133 47.133s-21.144 47.134-47.133 47.134z" fill="#ffcb00"/></g></svg>